<svg xmlns="http://www.w3.org/2000/svg" viewBox="0 0 240 150"><path d="M14 140 C 18 70, 70 30, 120 30 C 170 30, 222 70, 226 140 Z" fill="#8e3b54"/><path d="M26 116 H214" stroke="#c49a55" stroke-width="1.2"/><path d="M30 136 l8 -16 l8 16z" fill="#c49a55" fill-opacity=".9"/><path d="M46 136 l8 -16 l8 16z" fill="#c49a55" fill-opacity=".9"/><path d="M62 136 l8 -16 l8 16z" fill="#c49a55" fill-opacity=".9"/><path d="M78 136 l8 -16 l8 16z" fill="#c49a55" fill-opacity=".9"/><path d="M94 136 l8 -16 l8 16z" fill="#c49a55" fill-opacity=".9"/><path d="M110 136 l8 -16 l8 16z" fill="#c49a55" fill-opacity=".9"/><path d="M126 136 l8 -16 l8 16z" fill="#c49a55" fill-opacity=".9"/><path d="M142 136 l8 -16 l8 16z" fill="#c49a55" fill-opacity=".9"/><path d="M158 136 l8 -16 l8 16z" fill="#c49a55" fill-opacity=".9"/><path d="M174 136 l8 -16 l8 16z" fill="#c49a55" fill-opacity=".9"/><path d="M190 136 l8 -16 l8 16z" fill="#c49a55" fill-opacity=".9"/><path d="M50 82 C 80 70, 160 70, 190 82" fill="none" stroke="#c49a55" stroke-width="1"/><circle cx="56" cy="94.2" r="1.8" fill="#c49a55"/><circle cx="69" cy="94.9" r="1.8" fill="#c49a55"/><circle cx="82" cy="95.7" r="1.8" fill="#c49a55"/><circle cx="95" cy="96.5" r="1.8" fill="#c49a55"/><circle cx="108" cy="97.3" r="1.8" fill="#c49a55"/><circle cx="121" cy="97.9" r="1.8" fill="#c49a55"/><circle cx="134" cy="97.2" r="1.8" fill="#c49a55"/><circle cx="147" cy="96.4" r="1.8" fill="#c49a55"/><circle cx="160" cy="95.6" r="1.8" fill="#c49a55"/><circle cx="173" cy="94.8" r="1.8" fill="#c49a55"/><path d="M58 48 C 70 40, 84 36, 96 35" fill="none" stroke="#fbf7f2" stroke-opacity=".3" stroke-width="4" stroke-linecap="round"/><ellipse cx="120" cy="140" rx="106" ry="8" fill="#8e3b54" stroke="#c49a55" stroke-width="2.4"/><path d="M112 31 L116 18 H124 L128 31 Z" fill="#c49a55"/><circle cx="120" cy="12" r="7" fill="#c49a55"/><circle cx="118" cy="10" r="2" fill="#fbf7f2" fill-opacity=".6"/></svg>