<svg xmlns="http://www.w3.org/2000/svg" viewBox="0 0 200 200"><defs><linearGradient id="g" x1="0" y1="0" x2="1" y2="1"><stop offset="0" stop-color="#e9d3a0"/><stop offset=".5" stop-color="#b8904a"/><stop offset="1" stop-color="#f1e0b6"/></linearGradient></defs><style>.d{stroke-dasharray:640;stroke-dashoffset:640;animation:d 2.8s cubic-bezier(.6,0,.2,1) forwards}.l{stroke-dasharray:200;stroke-dashoffset:200;animation:d 2s ease 1s forwards}.k{opacity:0;animation:k .7s ease 2s forwards;transform-box:fill-box;transform-origin:center}@keyframes d{to{stroke-dashoffset:0}}@keyframes k{from{opacity:0;transform:scale(.2)}to{opacity:1;transform:none}}@media (prefers-reduced-motion:reduce){.d,.l,.k{animation:none;stroke-dashoffset:0;opacity:1}}</style><g fill="none" stroke="url(#g)" stroke-linecap="round"><circle class="d" cx="100" cy="100" r="84" stroke-width="1.6" transform="rotate(-90 100 100)"/><circle class="d" cx="100" cy="100" r="76" stroke-width=".8" style="animation-delay:.4s" transform="rotate(90 100 100)"/><path class="l" d="M52 150c10 16 28 26 48 28M148 150c-10 16-28 26-48 28" stroke-width="1.2"/><path class="l" d="M60 160c-6-2-10-6-12-12 7 0 11 4 12 12zM72 168c-6 0-11-3-14-9 7-1 12 3 14 9zM86 174c-6 1-11-1-15-6 7-2 12 1 15 6zM140 160c6-2 10-6 12-12-7 0-11 4-12 12zM128 168c6 0 11-3 14-9-7-1-12 3-14 9zM114 174c6 1 11-1 15-6-7-2-12 1-15 6z" stroke-width=".9"/></g><g class="k" fill="url(#g)"><path d="M100 6l8 10-8 10-8-10z"/></g><g class="k" fill="#b8904a" style="animation-delay:2.2s"><circle cx="16" cy="100" r="2.2"/><circle cx="184" cy="100" r="2.2"/></g></svg>
