<svg xmlns="http://www.w3.org/2000/svg" viewBox="0 0 100 1000" preserveAspectRatio="none"><path d="M50.00 0 L48.93 10 L47.87 20 L46.80 30 L45.74 40 L44.68 50 L43.63 60 L42.58 70 L41.54 80 L40.51 90 L39.49 100 L38.48 110 L37.48 120 L36.50 130 L35.52 140 L34.56 150 L33.62 160 L32.69 170 L31.78 180 L30.89 190 L30.02 200 L29.16 210 L28.33 220 L27.52 230 L26.73 240 L25.96 250 L25.22 260 L24.50 270 L23.80 280 L23.13 290 L22.49 300 L21.88 310 L21.29 320 L20.73 330 L20.21 340 L19.71 350 L19.24 360 L18.80 370 L18.39 380 L18.01 390 L17.66 400 L17.35 410 L17.07 420 L16.82 430 L16.60 440 L16.42 450 L16.27 460 L16.15 470 L16.07 480 L16.02 490 L16.00 500 L16.02 510 L16.07 520 L16.15 530 L16.27 540 L16.42 550 L16.60 560 L16.82 570 L17.07 580 L17.35 590 L17.66 600 L18.01 610 L18.39 620 L18.80 630 L19.24 640 L19.71 650 L20.21 660 L20.73 670 L21.29 680 L21.88 690 L22.49 700 L23.13 710 L23.80 720 L24.50 730 L25.22 740 L25.96 750 L26.73 760 L27.52 770 L28.33 780 L29.16 790 L30.02 800 L30.89 810 L31.78 820 L32.69 830 L33.62 840 L34.56 850 L35.52 860 L36.50 870 L37.48 880 L38.48 890 L39.49 900 L40.51 910 L41.54 920 L42.58 930 L43.63 940 L44.68 950 L45.74 960 L46.80 970 L47.87 980 L48.93 990 L50.00 1000" fill="none" stroke="#ff7eb6" stroke-opacity=".28" stroke-width="12" stroke-linecap="round" vector-effect="non-scaling-stroke"/><path d="M50.00 0 L48.93 10 L47.87 20 L46.80 30 L45.74 40 L44.68 50 L43.63 60 L42.58 70 L41.54 80 L40.51 90 L39.49 100 L38.48 110 L37.48 120 L36.50 130 L35.52 140 L34.56 150 L33.62 160 L32.69 170 L31.78 180 L30.89 190 L30.02 200 L29.16 210 L28.33 220 L27.52 230 L26.73 240 L25.96 250 L25.22 260 L24.50 270 L23.80 280 L23.13 290 L22.49 300 L21.88 310 L21.29 320 L20.73 330 L20.21 340 L19.71 350 L19.24 360 L18.80 370 L18.39 380 L18.01 390 L17.66 400 L17.35 410 L17.07 420 L16.82 430 L16.60 440 L16.42 450 L16.27 460 L16.15 470 L16.07 480 L16.02 490 L16.00 500 L16.02 510 L16.07 520 L16.15 530 L16.27 540 L16.42 550 L16.60 560 L16.82 570 L17.07 580 L17.35 590 L17.66 600 L18.01 610 L18.39 620 L18.80 630 L19.24 640 L19.71 650 L20.21 660 L20.73 670 L21.29 680 L21.88 690 L22.49 700 L23.13 710 L23.80 720 L24.50 730 L25.22 740 L25.96 750 L26.73 760 L27.52 770 L28.33 780 L29.16 790 L30.02 800 L30.89 810 L31.78 820 L32.69 830 L33.62 840 L34.56 850 L35.52 860 L36.50 870 L37.48 880 L38.48 890 L39.49 900 L40.51 910 L41.54 920 L42.58 930 L43.63 940 L44.68 950 L45.74 960 L46.80 970 L47.87 980 L48.93 990 L50.00 1000" fill="none" stroke="#ff7eb6" stroke-width="3.5" stroke-linecap="round" stroke-dasharray="1 9" vector-effect="non-scaling-stroke"/></svg>